<svg width="16" height="16" viewBox="0 0 16 16" fill="none" xmlns="http://www.w3.org/2000/svg">
<path d="M6 1.33301V2.66699H10V1.33301H11.333V2.66699H12.667C13.4022 2.66717 14 3.26478 14 4V13.333C14 14.0682 13.4022 14.6668 12.667 14.667H3.33301C2.59782 14.6668 2 14.0682 2 13.333V4C2 3.26478 2.59782 2.66717 3.33301 2.66699H4.66699V1.33301H6ZM3.33301 5.33301V13.333H12.667V5.33301H3.33301ZM6.09863 11.3857H4.76562V10.0527H6.09863V11.3857ZM8.76562 11.3857H7.43164V10.0527H8.76562V11.3857ZM11.4316 11.3857H10.0986V10.0527H11.4316V11.3857ZM6.09863 8.71973H4.76562V7.38574H6.09863V8.71973ZM8.76562 8.71973H7.43164V7.38574H8.76562V8.71973ZM11.4316 8.71973H10.0986V7.38574H11.4316V8.71973Z" fill="black" fill-opacity="0.84"/>
</svg>
