<svg width="16" height="16" viewBox="0 0 16 16" fill="none" xmlns="http://www.w3.org/2000/svg">
<path d="M10.667 4C11.4021 4.00018 11.9998 4.59793 12 5.33301V10.667C11.9998 11.4021 11.4021 11.9998 10.667 12H7.51758L3.33301 14.5107V12H2.66699C1.93177 12 1.33318 11.4022 1.33301 10.667V5.33301C1.33318 4.59782 1.93177 4 2.66699 4H10.667ZM2.66699 5.33301V10.667H4.66699V12.1562L7.14844 10.667H10.667V5.33301H2.66699ZM13.333 1.33301C14.0683 1.33301 14.667 1.93166 14.667 2.66699V8C14.667 8.73533 14.0683 9.33301 13.333 9.33301V4C13.333 3.26467 12.7353 2.66699 12 2.66699H4C4 1.93177 4.59782 1.33318 5.33301 1.33301H13.333Z" fill="black" fill-opacity="0.84"/>
</svg>
