<svg width="12" height="12" viewBox="0 0 12 12" fill="none" xmlns="http://www.w3.org/2000/svg">
<g clip-path="url(#clip0_49_751)">
<path fill-rule="evenodd" clip-rule="evenodd" d="M6.00004 6.70711L8.79293 9.50001C8.98819 9.69527 9.30478 9.69527 9.50004 9.50001C9.6953 9.30475 9.6953 8.98816 9.50004 8.7929L6.70714 6.00001L9.50004 3.20711C9.6953 3.01185 9.6953 2.69527 9.50004 2.50001C9.30478 2.30475 8.98819 2.30474 8.79293 2.50001L6.00004 5.2929L3.20714 2.50001C3.01188 2.30475 2.6953 2.30475 2.50004 2.50001C2.30478 2.69527 2.30478 3.01185 2.50004 3.20711L5.29293 6.00001L2.50004 8.7929C2.30478 8.98816 2.30478 9.30475 2.50004 9.50001C2.6953 9.69527 3.01188 9.69527 3.20714 9.50001L6.00004 6.70711Z" fill="black" fill-opacity="0.66"/>
</g>
<defs>
<clipPath id="clip0_49_751">
<rect width="12" height="12" fill="white"/>
</clipPath>
</defs>
</svg>
