<svg width="14" height="14" viewBox="0 0 14 14" fill="none" xmlns="http://www.w3.org/2000/svg">
<path d="M7 1.16699C10.2165 1.16699 12.833 3.7835 12.833 7C12.833 10.2165 10.2165 12.833 7 12.833C3.7835 12.833 1.16699 10.2165 1.16699 7C1.16699 3.7835 3.7835 1.16699 7 1.16699ZM7 2.33301C4.42692 2.33301 2.33301 4.42692 2.33301 7C2.33301 9.57308 4.42692 11.667 7 11.667C9.57308 11.667 11.667 9.57308 11.667 7C11.667 4.42692 9.57308 2.33301 7 2.33301ZM7.08301 4.08301C7.35904 4.08301 7.58283 4.30702 7.58301 4.58301V6.75879L8.80859 7.98438C9.00382 8.17964 9.00384 8.49616 8.80859 8.69141L8.69141 8.80859C8.49616 9.00384 8.17964 9.00382 7.98438 8.80859L6.56348 7.3877C6.46971 7.29393 6.41699 7.16679 6.41699 7.03418V4.58301C6.41717 4.30702 6.64096 4.08301 6.91699 4.08301H7.08301Z" fill="black" fill-opacity="0.45"/>
</svg>
