<svg width="16" height="16" viewBox="0 0 16 16" fill="none" xmlns="http://www.w3.org/2000/svg">
<path d="M12.696 4.93404C12.948 4.68204 13.0867 4.34737 13.0867 3.99137C13.0867 3.63537 12.948 3.30071 12.696 3.04871L11.6387 1.99137C11.3867 1.73937 11.052 1.60071 10.696 1.60071C10.34 1.60071 10.0053 1.73937 9.75402 1.99071L2.66602 9.05671V12H5.60802L12.696 4.93404ZM10.696 2.93404L11.754 3.99071L10.694 5.04671L9.63668 3.99004L10.696 2.93404ZM3.99935 10.6667V9.61004L8.69268 4.93137L9.75002 5.98871L5.05735 10.6667H3.99935ZM2.66602 13.3334H13.3327V14.6667H2.66602V13.3334Z" fill="black" fill-opacity="0.84"/>
</svg>
