<svg width="16" height="16" viewBox="0 0 16 16" fill="none" xmlns="http://www.w3.org/2000/svg">
<path d="M7.35547 2.7334C7.70251 2.7334 8.04304 2.76298 8.37402 2.81934C8.61019 2.85955 8.7743 3.07002 8.77441 3.30957C8.77441 3.65663 8.43893 3.9056 8.0957 3.85449C7.85449 3.81841 7.60674 3.7998 7.35547 3.7998C4.61861 3.80001 2.4004 6.01895 2.40039 8.75586C2.40039 11.4928 4.6186 13.7117 7.35547 13.7119C10.0925 13.7119 12.3115 11.4929 12.3115 8.75586C12.3115 8.50848 12.2938 8.26501 12.2588 8.02734C12.2085 7.68448 12.4572 7.34972 12.8037 7.34961C13.0437 7.34961 13.255 7.51432 13.2949 7.75098C13.3498 8.07766 13.3779 8.41358 13.3779 8.75586C13.3779 12.082 10.6816 14.7783 7.35547 14.7783C4.0295 14.7781 1.33301 12.0819 1.33301 8.75586C1.33302 5.42985 4.02951 2.73361 7.35547 2.7334ZM9.03027 9.51855C9.98552 9.51855 10.6903 10.4415 10.0557 11.1553C9.39405 11.8991 8.42926 12.3682 7.35547 12.3682C6.28183 12.3681 5.31778 11.899 4.65625 11.1553C4.02153 10.4416 4.72556 9.5188 5.68066 9.51855H9.03027ZM5.42871 6.18945C6.02062 6.18945 6.5008 6.66888 6.50098 7.26074C6.50098 7.85276 6.02072 8.33301 5.42871 8.33301C4.83672 8.33298 4.35645 7.85274 4.35645 7.26074C4.35662 6.66889 4.83683 6.18948 5.42871 6.18945ZM9.2373 6.18945C9.82904 6.18966 10.3084 6.669 10.3086 7.26074C10.3086 7.85263 9.82915 8.3328 9.2373 8.33301C8.64529 8.33301 8.16504 7.85276 8.16504 7.26074C8.16522 6.66888 8.6454 6.18945 9.2373 6.18945ZM12.3418 1.33301C12.6178 1.33306 12.8416 1.55705 12.8418 1.83301V3.16699H14.1748C14.4509 3.16699 14.6748 3.39085 14.6748 3.66699C14.6746 3.94298 14.4508 4.16699 14.1748 4.16699H12.8418V5.5C12.8418 5.77611 12.6179 5.99994 12.3418 6C12.0657 6 11.8418 5.77614 11.8418 5.5V4.16699H10.5088C10.2328 4.16699 10.009 3.94298 10.0088 3.66699C10.0088 3.39085 10.2326 3.16699 10.5088 3.16699H11.8418V1.83301C11.842 1.55702 12.0658 1.33301 12.3418 1.33301Z" fill="black" fill-opacity="0.44"/>
</svg>
