<svg width="16" height="16" viewBox="0 0 16 16" fill="none" xmlns="http://www.w3.org/2000/svg">
<path fill-rule="evenodd" clip-rule="evenodd" d="M13.3334 2.66667H9.66671V4.66667H13.3334V2.66667ZM14 4.66667V5.33333V10.6667V11.3333V13.3333C14 13.7015 13.7016 14 13.3334 14L9.66671 14H9.00004L5.33337 14C4.96518 14 4.66671 13.7015 4.66671 13.3333V11.3333H2.00004C1.63185 11.3333 1.33337 11.0349 1.33337 10.6667V5.33333C1.33337 4.96514 1.63185 4.66667 2.00004 4.66667H4.66671V2.66667C4.66671 2.29848 4.96518 2 5.33337 2H9.00004H9.66671H13.3334C13.7016 2 14 2.29848 14 2.66667V4.66667ZM13.3334 8.33333V10.6667H9.66671V8.33333H13.3334ZM9.00004 8.33333V10.6667H8.00004V8.33333H9.00004ZM9.00004 13.3333V11.3333H7.33337H5.33337V13.3333H9.00004ZM13.3334 11.3333H9.66671V13.3333H13.3334V11.3333ZM5.33337 4.66667H7.33337H9.00004V2.66667H5.33337V4.66667ZM9.00004 5.33333H8.00004V7.66667H9.00004V5.33333ZM13.3334 5.33333H9.66671V7.66667H13.3334V5.33333ZM4.00004 6H2.66671L4.00004 8L2.66671 10H4.00004L4.66671 9L5.33337 10H6.66671L5.33337 8L6.66671 6H5.33337L4.66671 7L4.00004 6Z" fill="black" fill-opacity="0.84"/>
</svg>
