<svg width="16" height="16" viewBox="0 0 16 16" fill="none" xmlns="http://www.w3.org/2000/svg">
<g clip-path="url(#clip0_89_4881)">
<path d="M8.66699 1.33301C8.68076 1.33312 8.69327 1.34039 8.70703 1.3418C8.76581 1.34538 8.82414 1.35702 8.87988 1.37598C8.90119 1.3833 8.9224 1.38912 8.94238 1.39844C9.0146 1.42998 9.08094 1.47366 9.1377 1.52832L13.1377 5.52832C13.1924 5.58506 13.237 5.65141 13.2686 5.72363C13.2779 5.74363 13.2843 5.7648 13.291 5.78613C13.3103 5.84176 13.321 5.90021 13.3242 5.95898C13.3256 5.97354 13.333 5.98609 13.333 6V13.333C13.333 14.0683 12.7353 14.667 12 14.667H4C3.26467 14.667 2.66699 14.0683 2.66699 13.333V2.66699C2.66699 1.93166 3.26467 1.33301 4 1.33301H8.66699ZM4 2.66699V13.333H12.001L12 6.66699H8.66699C8.49026 6.66699 8.32032 6.5966 8.19531 6.47168C8.07029 6.34666 8 6.17681 8 6V2.66699H4ZM10.667 12H5.33301V10.667H10.667V12ZM10.667 9.33301H5.33301V8H10.667V9.33301ZM6.66699 6.66699H5.33301V5.33301H6.66699V6.66699ZM9.33301 5.33301H11.0576L9.33301 3.60938V5.33301Z" fill="black" fill-opacity="0.66"/>
</g>
<defs>
<clipPath id="clip0_89_4881">
<rect width="16" height="16" fill="white"/>
</clipPath>
</defs>
</svg>
