<svg width="16" height="16" viewBox="0 0 16 16" fill="none" xmlns="http://www.w3.org/2000/svg">
<path d="M11 10.667C11.1841 10.667 11.333 10.8159 11.333 11V11.667C11.3328 11.8509 11.184 12 11 12H5C4.81601 12 4.66717 11.8509 4.66699 11.667V11C4.66699 10.8159 4.81591 10.667 5 10.667H11ZM11 7.33301C11.1841 7.33301 11.333 7.4829 11.333 7.66699V8.33301C11.333 8.5171 11.1841 8.66699 11 8.66699H5C4.81591 8.66699 4.66699 8.5171 4.66699 8.33301V7.66699C4.66699 7.4829 4.81591 7.33301 5 7.33301H11ZM11 4C11.184 4 11.3328 4.14906 11.333 4.33301V5C11.333 5.18409 11.1841 5.33301 11 5.33301H5C4.81591 5.33301 4.66699 5.18409 4.66699 5V4.33301C4.66717 4.14906 4.81601 4 5 4H11Z" fill="black" fill-opacity="0.84"/>
</svg>
