<svg width="16" height="16" viewBox="0 0 16 16" fill="none" xmlns="http://www.w3.org/2000/svg">
<g clip-path="url(#clip0_19_1292)">
<path d="M8 9.72272C10.206 9.72272 12 11.5167 12 13.7227V14.3887H10.667V13.7227C10.667 12.2521 9.47067 11.0557 8 11.0557H6C4.52948 11.0559 3.33398 12.2522 3.33398 13.7227V14.3887H2V13.7227C2 11.5168 3.79415 9.72289 6 9.72272H8ZM10.3682 3.16803C11.4535 3.88736 12.118 4.93868 12.2373 6.12799C12.3179 6.92606 12.1423 7.72913 11.7363 8.42096C14.0297 9.53229 14.667 11.8631 14.667 13.0557H13.334C13.334 13.0271 13.3008 10.19 10.4795 9.36334L9.40137 9.04596L10.1953 8.25201C10.4548 7.99417 10.6537 7.6813 10.7773 7.33698C10.901 6.99263 10.9464 6.62487 10.9102 6.2608C10.8314 5.47762 10.3777 4.773 9.63184 4.27838L10.3682 3.16803ZM7 3.72272C8.47058 3.72272 9.66685 4.91819 9.66699 6.38873C9.66699 7.8594 8.47067 9.05573 7 9.05573C5.52948 9.05555 4.33398 7.85929 4.33398 6.38873C4.33413 4.9183 5.52957 3.72289 7 3.72272ZM7 5.05573C6.2649 5.0559 5.66714 5.65363 5.66699 6.38873C5.66699 7.12396 6.26482 7.72254 7 7.72272C7.73533 7.72272 8.33398 7.12407 8.33398 6.38873C8.33384 5.65352 7.73525 5.05573 7 5.05573Z" fill="black" fill-opacity="0.44"/>
</g>
<defs>
<clipPath id="clip0_19_1292">
<rect width="16" height="16" fill="white"/>
</clipPath>
</defs>
</svg>
