<svg width="16" height="16" viewBox="0 0 16 16" fill="none" xmlns="http://www.w3.org/2000/svg">
<g clip-path="url(#clip0_19_1285)">
<path d="M10 2C10.0138 2.00011 10.0263 2.00739 10.04 2.00879C10.0988 2.01237 10.1571 2.02401 10.2129 2.04297C10.2342 2.05029 10.2554 2.05612 10.2754 2.06543C10.3476 2.09698 10.4139 2.14065 10.4707 2.19531L14.4707 6.19531C14.5254 6.25205 14.57 6.31841 14.6016 6.39062C14.6109 6.41062 14.6174 6.43179 14.624 6.45312C14.6433 6.50875 14.654 6.5672 14.6572 6.62598C14.6586 6.64053 14.666 6.65308 14.666 6.66699V14C14.666 14.7353 14.0683 15.334 13.333 15.334H5.33301C4.59767 15.334 4 14.7353 4 14V3.33398C4 2.59865 4.59767 2 5.33301 2H10ZM5.33301 3.33398V14H13.334L13.333 7.33398H10C9.82327 7.33398 9.65333 7.26359 9.52832 7.13867C9.4033 7.01365 9.33301 6.8438 9.33301 6.66699V3.33398H5.33301ZM12 12.667H6.66602V11.334H12V12.667ZM12 10H6.66602V8.66699H12V10ZM8 7.33398H6.66602V6H8V7.33398ZM10.666 6H12.3906L10.666 4.27637V6Z" fill="black" fill-opacity="0.44"/>
</g>
<defs>
<clipPath id="clip0_19_1285">
<rect width="16" height="16" fill="white"/>
</clipPath>
</defs>
</svg>
