<svg width="16" height="16" viewBox="0 0 16 16" fill="none" xmlns="http://www.w3.org/2000/svg">
<g clip-path="url(#clip0_89_4888)">
<path d="M11.333 8C12.8058 8 14 9.19423 14 10.667C13.9999 11.1611 13.8622 11.6218 13.6279 12.0186L15.1377 13.5283L14.1953 14.4717L12.6865 12.9619C12.2895 13.1965 11.8275 13.333 11.333 13.333C9.86051 13.3328 8.66717 12.1395 8.66699 10.667C8.66699 9.19434 9.8604 8.00018 11.333 8ZM3.33301 12H2V10.667H3.33301V12ZM7.33301 10.667C7.33305 11.1345 7.41411 11.583 7.56152 12H4.66699V10.667H7.33301ZM11.333 9.33301C10.5968 9.33318 10 9.93072 10 10.667C10.0002 11.4031 10.5969 11.9998 11.333 12C12.0693 12 12.6668 11.4032 12.667 10.667C12.667 9.93061 12.0694 9.33301 11.333 9.33301ZM3.33301 9.33301H2V8H3.33301V9.33301ZM8.35254 8C8.00816 8.38468 7.73718 8.83622 7.56152 9.33301H4.66699V8H8.35254ZM3.33301 6.66699H2V5.33301H3.33301V6.66699ZM12.667 6.66699H4.66699V5.33301H12.667V6.66699ZM3.33301 4H2V2.66699H3.33301V4ZM12.667 4H4.66699V2.66699H12.667V4Z" fill="black" fill-opacity="0.66"/>
</g>
<defs>
<clipPath id="clip0_89_4888">
<rect width="16" height="16" fill="white"/>
</clipPath>
</defs>
</svg>
