<svg width="16" height="16" viewBox="0 0 16 16" fill="none" xmlns="http://www.w3.org/2000/svg">
<g clip-path="url(#clip0_1_14979)">
<path d="M8 1.33301C11.676 1.33301 14.667 4.324 14.667 8C14.667 11.676 11.676 14.667 8 14.667C4.324 14.667 1.33301 11.676 1.33301 8C1.33301 4.324 4.324 1.33301 8 1.33301ZM8 2.66699C5.05933 2.66699 2.66699 5.05933 2.66699 8C2.66699 10.9407 5.05933 13.333 8 13.333C10.9407 13.333 13.333 10.9407 13.333 8C13.333 5.05933 10.9407 2.66699 8 2.66699ZM8.66699 11.333H7.33301V7.33301H8.66699V11.333ZM8.66699 6H7.33301V4.66699H8.66699V6Z" fill="black" fill-opacity="0.44"/>
</g>
<defs>
<clipPath id="clip0_1_14979">
<rect width="16" height="16" fill="white"/>
</clipPath>
</defs>
</svg>
