<svg width="16" height="16" viewBox="0 0 16 16" fill="none" xmlns="http://www.w3.org/2000/svg">
<g clip-path="url(#clip0_81_4159)">
<path d="M14.9954 0.990051H0.995361V14.9901H14.9954V0.990051Z" fill="#00C362"/>
<path d="M10.6157 7.92606C10.6157 7.90209 10.607 7.87888 10.5912 7.86078L7.90365 4.78486C7.85208 4.72774 7.76571 4.69305 7.68811 4.69305H5.48884C5.39087 4.69305 5.33905 4.80959 5.40428 4.88176L9.09507 9.02209L7.0572 11.0974C6.98888 11.1688 7.04019 11.2871 7.13945 11.2871H9.43566C9.51043 11.2871 9.59474 11.2565 9.64604 11.2027L10.5845 10.315C10.6044 10.2961 10.6157 10.2701 10.6157 10.2428V7.92606Z" fill="white"/>
</g>
<defs>
<clipPath id="clip0_81_4159">
<rect x="1" y="1" width="14" height="14" rx="1" fill="white"/>
</clipPath>
</defs>
</svg>
