<svg width="16" height="16" viewBox="0 0 16 16" fill="none" xmlns="http://www.w3.org/2000/svg">
<g clip-path="url(#clip0_49_924)">
<path fill-rule="evenodd" clip-rule="evenodd" d="M3.66659 3.33333V8.66667H5.66659V3.33333H3.66659ZM2.99992 10H5.66659V13.3333C5.66659 13.7015 5.96506 14 6.33325 14H9.66658C10.0348 14 10.3333 13.7015 10.3333 13.3333V11.3333H12.9999C13.3681 11.3333 13.6666 11.0349 13.6666 10.6667V2.66667C13.6666 2.29848 13.3681 2 12.9999 2H9.66658H6.33325H2.99992C2.63173 2 2.33325 2.29848 2.33325 2.66667V9.33333C2.33325 9.70152 2.63173 10 2.99992 10ZM10.3333 3.33333V10H12.3333V3.33333H10.3333ZM8.99992 3.33333H6.99992V9.33333V12.6667H8.99992V10.6667V3.33333Z" fill="black" fill-opacity="0.44"/>
</g>
<defs>
<clipPath id="clip0_49_924">
<rect width="16" height="16" fill="white"/>
</clipPath>
</defs>
</svg>
