<svg width="18" height="18" viewBox="0 0 18 18" fill="none" xmlns="http://www.w3.org/2000/svg">
<path fill-rule="evenodd" clip-rule="evenodd" d="M5.25 9.75001V7.50001H3V9.75001H5.25ZM3 11.25C2.17275 11.25 1.5 10.5773 1.5 9.75001V7.50001C1.5 6.67276 2.17275 6.00001 3 6.00001H6L15.498 2.60851C15.6111 2.56816 15.7323 2.55556 15.8513 2.57178C15.9703 2.58801 16.0837 2.63258 16.1819 2.70174C16.2801 2.7709 16.3602 2.86264 16.4156 2.96923C16.4709 3.07583 16.4999 3.19415 16.5 3.31426V13.9358C16.4999 14.0559 16.4709 14.1742 16.4156 14.2808C16.3602 14.3874 16.2801 14.4791 16.1819 14.5483C16.0837 14.6175 15.9703 14.662 15.8513 14.6782C15.7323 14.6945 15.6111 14.6819 15.498 14.6415L12.4388 13.5488L11.4615 15.5033C11.4614 15.5034 11.4616 15.5032 11.4615 15.5033C11.2982 15.8244 11.0255 16.077 10.6926 16.2149C10.3597 16.3528 9.98839 16.3672 9.64575 16.2555L6.5832 15.2349C6.37925 15.167 6.19183 15.0559 6.03452 14.9095C5.87721 14.763 5.75324 14.5844 5.67101 14.3858C5.58878 14.1872 5.55022 13.9732 5.55794 13.7584C5.56529 13.5539 5.61443 13.3531 5.70221 13.1685C5.70662 13.1592 5.71114 13.15 5.71575 13.1408L6.561 11.4503L6 11.25H3ZM10.1198 14.8328L10.1242 14.8238L11.0153 13.0418L7.98379 11.9588L7.05756 13.8119L10.1198 14.8328ZM8.65952 10.6073L6.75 9.92503V7.32497L15 4.3791V12.8708L11.6916 11.6891L11.6909 11.6903L8.65952 10.6073Z" fill="black" fill-opacity="0.66"/>
</svg>
