<svg width="16" height="16" viewBox="0 0 16 16" fill="none" xmlns="http://www.w3.org/2000/svg">
<path d="M2.66659 14H13.2619C13.9973 14 14.5953 13.402 14.5953 12.6667V3.33333C14.5953 2.598 13.9973 2 13.2619 2H2.66659C1.93125 2 1.33325 2.598 1.33325 3.33333V12.6667C1.33325 13.402 1.93125 14 2.66659 14ZM2.66659 12.6667V9.33333H5.33325V12.6667H2.66659ZM9.33325 4.66667V8H6.66659V4.66667H9.33325ZM5.33325 4.66667V8H2.66659V4.66667H5.33325ZM6.66659 12.6667V9.33333H9.33325V12.6667H6.66659ZM10.6666 12.6667V9.33333H13.2626V12.6667H10.6666ZM13.2619 8H10.6666V4.66667H13.2619V8Z" fill="black" fill-opacity="0.84"/>
</svg>
