<svg width="20" height="20" viewBox="0 0 20 20" fill="none" xmlns="http://www.w3.org/2000/svg">
<path d="M3.33325 9.16667V12.5H8.74992V15L9.99992 16.25L12.9166 10V4.16667H4.16659L3.33325 9.16667Z" fill="white"/>
<path d="M9.37598 17.2213C10.0141 17.8592 11.0975 17.6315 11.4248 16.7907L13.7412 10.8336H16.667V3.33364H4.87305C4.05832 3.33364 3.36246 3.92257 3.22852 4.72622L2.5 9.09731V11.6666C2.50001 12.5871 3.24652 13.3336 4.16699 13.3336H7.91699V15.7614L9.37598 17.2213ZM9.58301 15.0719V11.6666H4.16699V9.23599L4.87305 4.99966H12.5V9.42739L10.1025 15.5915L9.58301 15.0719Z" fill="black" fill-opacity="0.66"/>
</svg>
