<svg width="20" height="20" viewBox="0 0 20 20" fill="none" xmlns="http://www.w3.org/2000/svg">
<path d="M16.6667 10.8333V7.5H11.2501V5L10.0001 3.75L7.08342 10V15.8333H15.8334L16.6667 10.8333Z" fill="white"/>
<path d="M10.624 2.77866C9.98589 2.1408 8.90248 2.36854 8.5752 3.20933L6.25879 9.16636H3.33301V16.6664H15.127C15.9417 16.6664 16.6375 16.0774 16.7715 15.2738L17.5 10.9027V8.33335C17.5 7.41288 16.7535 6.66636 15.833 6.66636H12.083V4.23862L10.624 2.77866ZM10.417 4.92808V8.33335H15.833V10.764L15.127 15.0003H7.5V10.5726L9.89746 4.40855L10.417 4.92808Z" fill="black" fill-opacity="0.66"/>
</svg>
