<svg width="16" height="16" viewBox="0 0 16 16" fill="none" xmlns="http://www.w3.org/2000/svg">
<path d="M10 1.33334C10.3535 1.33334 10.6923 1.47402 10.9424 1.72397C11.1924 1.97394 11.3329 2.31285 11.333 2.66635V4.00034H14V5.33334H12.667V13.3333C12.667 13.6868 12.5262 14.0257 12.2764 14.2757C12.0263 14.5258 11.6866 14.6664 11.333 14.6664H4.66699C4.31337 14.6664 3.97368 14.5258 3.72363 14.2757C3.47379 14.0257 3.33301 13.6868 3.33301 13.3333V5.33334H2V4.00034H4.66699V2.66635C4.66708 2.31285 4.80765 1.97394 5.05762 1.72397C5.30765 1.47402 5.64645 1.33334 6 1.33334H10ZM4.66699 5.33334V13.3333H11.333V5.33334H4.66699ZM7.33301 12.0003H6V6.66635H7.33301V12.0003ZM10 12.0003H8.66699V6.66635H10V12.0003ZM6 2.66635V4.00034H10V2.66635H6Z" fill="black" fill-opacity="0.44"/>
</svg>
