<svg width="16" height="16" viewBox="0 0 16 16" fill="none" xmlns="http://www.w3.org/2000/svg">
<path d="M13.5266 5.52669L10.6666 8.38669L9.79992 7.52669L8.85992 8.47336L10.6599 10.2734L14.4733 6.47336L13.5266 5.52669ZM2.66659 5.33336C2.65838 5.6858 2.72174 6.03624 2.85285 6.36348C2.98395 6.69073 3.18008 6.98798 3.42935 7.23726C3.67863 7.48654 3.97588 7.68266 4.30313 7.81376C4.63038 7.94487 4.98082 8.00824 5.33325 8.00003C5.68569 8.00824 6.03613 7.94487 6.36337 7.81376C6.69062 7.68266 6.98787 7.48654 7.23715 7.23726C7.48643 6.98798 7.68255 6.69073 7.81366 6.36348C7.94476 6.03624 8.00813 5.6858 7.99992 5.33336C8.00813 4.98092 7.94476 4.63048 7.81366 4.30324C7.68255 3.97599 7.48643 3.67874 7.23715 3.42946C6.98787 3.18018 6.69062 2.98406 6.36337 2.85295C6.03613 2.72185 5.68569 2.65848 5.33325 2.66669C4.98082 2.65848 4.63038 2.72185 4.30313 2.85295C3.97588 2.98406 3.67863 3.18018 3.42935 3.42946C3.18008 3.67874 2.98395 3.97599 2.85285 4.30324C2.72174 4.63048 2.65838 4.98092 2.66659 5.33336ZM6.66659 5.33336C6.67516 5.51073 6.64654 5.68792 6.58257 5.85357C6.5186 6.01922 6.42068 6.16966 6.29512 6.29523C6.16956 6.42079 6.01912 6.5187 5.85347 6.58268C5.68782 6.64665 5.51062 6.67527 5.33325 6.66669C5.15589 6.67527 4.97869 6.64665 4.81304 6.58268C4.64739 6.5187 4.49695 6.42079 4.37138 6.29523C4.24582 6.16966 4.14791 6.01922 4.08394 5.85357C4.01996 5.68792 3.99134 5.51073 3.99992 5.33336C3.99134 5.15599 4.01996 4.97879 4.08394 4.81314C4.14791 4.64749 4.24582 4.49705 4.37138 4.37149C4.49695 4.24593 4.64739 4.14801 4.81304 4.08404C4.97869 4.02007 5.15589 3.99145 5.33325 4.00003C5.51062 3.99145 5.68782 4.02007 5.85347 4.08404C6.01912 4.14801 6.16956 4.24593 6.29512 4.37149C6.42068 4.49705 6.5186 4.64749 6.58257 4.81314C6.64654 4.97879 6.67516 5.15599 6.66659 5.33336ZM2.66659 12C2.66659 11.4696 2.8773 10.9609 3.25237 10.5858C3.62744 10.2107 4.13615 10 4.66659 10H5.99992C6.53035 10 7.03906 10.2107 7.41413 10.5858C7.78921 10.9609 7.99992 11.4696 7.99992 12V12.6667H9.33325V12C9.33325 11.5623 9.24703 11.1288 9.07952 10.7244C8.912 10.32 8.66647 9.95253 8.35694 9.643C8.04741 9.33347 7.67995 9.08794 7.27553 8.92043C6.87111 8.75291 6.43766 8.66669 5.99992 8.66669H4.66659C3.78253 8.66669 2.93468 9.01788 2.30956 9.643C1.68444 10.2681 1.33325 11.116 1.33325 12V12.6667H2.66659V12Z" fill="black" fill-opacity="0.84"/>
</svg>
