<svg width="16" height="16" viewBox="0 0 16 16" fill="none" xmlns="http://www.w3.org/2000/svg">
<path d="M12.9999 1.33334H2.99992C2.07944 1.33334 1.33325 2.07954 1.33325 3.00001V13C1.33325 13.9205 2.07944 14.6667 2.99992 14.6667H12.9999C13.9204 14.6667 14.6666 13.9205 14.6666 13V3.00001C14.6666 2.07954 13.9204 1.33334 12.9999 1.33334Z" fill="#1E2A3C"/>
<path fill-rule="evenodd" clip-rule="evenodd" d="M9.56361 6.10987C9.28028 6.14653 8.17028 5.45653 6.04028 4.3132C4.18361 3.31653 4.69028 4.7332 4.85361 5.11987C4.87695 5.1732 4.88028 5.2332 4.86695 5.2932C4.79695 5.56987 4.75361 6.61987 6.91361 8.91987C7.00028 9.0132 7.03695 9.1032 6.96695 9.20987C6.95028 9.2332 6.94361 9.24987 6.94361 9.24987C6.64695 9.7232 9.77695 5.93653 9.55695 6.1132L9.56361 6.10987Z" fill="#8699B7"/>
<path fill-rule="evenodd" clip-rule="evenodd" d="M9.56356 6.11008C9.29023 6.05008 9.20689 5.99008 8.25023 3.77008C7.53356 2.11008 6.84023 3.68341 6.85689 4.10341C6.85689 4.16341 6.84356 4.22008 6.81023 4.27008C6.64689 4.50341 5.79689 5.80675 7.00356 8.72675C7.05023 8.84341 7.04356 9.09008 6.97356 9.21008C6.95689 9.23341 6.95023 9.25008 6.95023 9.25008C6.65356 9.72341 9.78356 5.93675 9.56356 6.11341V6.11008Z" fill="#54718A"/>
<path fill-rule="evenodd" clip-rule="evenodd" d="M9.55992 6.11017C9.30325 6.1435 8.35992 5.57684 6.60992 4.6235C6.35325 5.21017 6.06992 6.49017 6.99659 8.72684C7.04325 8.84351 7.03659 9.09017 6.96659 9.21017C6.94992 9.2335 6.94325 9.24684 6.94325 9.24684C6.64659 9.72017 9.77659 5.9335 9.55659 6.11017H9.55992Z" fill="#9FBED1"/>
<path fill-rule="evenodd" clip-rule="evenodd" d="M12.0002 5.77678C11.6935 5.74678 11.4535 5.24011 10.9235 5.24011C10.3935 5.24011 9.78353 5.93345 9.56353 6.11011C9.2502 6.30678 7.56353 6.32011 5.07353 6.49678C2.8702 6.65011 3.6902 7.24345 3.94353 7.39678C3.9802 7.41678 3.99687 7.45011 3.99353 7.48678C3.9702 7.66678 4.26353 8.46678 6.85687 8.99678C7.1002 9.04678 6.9502 9.25011 6.9502 9.25011C6.65353 9.72345 5.6702 11.3868 5.35353 12.8534C5.2902 13.1501 5.58353 12.4134 6.7902 11.3868C8.0002 10.3601 9.2102 10.5401 10.2902 9.13345C11.3702 7.72678 10.8369 6.75011 12.0002 6.44678L14.6669 5.78011C14.6669 5.78011 12.0302 5.78011 12.0002 5.78011V5.77678Z" fill="white"/>
</svg>
