<svg width="16" height="16" viewBox="0 0 16 16" fill="none" xmlns="http://www.w3.org/2000/svg">
<path fill-rule="evenodd" clip-rule="evenodd" d="M15 8C15 11.866 11.866 15 8 15C4.13401 15 1 11.866 1 8C1 4.13401 4.13401 1 8 1C11.866 1 15 4.13401 15 8ZM9.67528 4.01121L10.6157 4.95166L7.15091 8.41648L6.21046 7.47603L9.67528 4.01121ZM9.74528 8.66397L8.80483 7.72352L5.34001 11.1883L6.28046 12.1288L9.74528 8.66397Z" fill="#AC47DB"/>
<path fill-rule="evenodd" clip-rule="evenodd" d="M15 8C15 11.866 11.866 15 8 15C4.13401 15 1 11.866 1 8C1 4.13401 4.13401 1 8 1C11.866 1 15 4.13401 15 8ZM9.67528 4.01121L10.6157 4.95166L7.15091 8.41648L6.21046 7.47603L9.67528 4.01121ZM9.74528 8.66397L8.80483 7.72352L5.34001 11.1883L6.28046 12.1288L9.74528 8.66397Z" fill="#AC47DB"/>
<path fill-rule="evenodd" clip-rule="evenodd" d="M15 8C15 11.866 11.866 15 8 15C4.13401 15 1 11.866 1 8C1 4.13401 4.13401 1 8 1C11.866 1 15 4.13401 15 8ZM9.67528 4.01121L10.6157 4.95166L7.15091 8.41648L6.21046 7.47603L9.67528 4.01121ZM9.74528 8.66397L8.80483 7.72352L5.34001 11.1883L6.28046 12.1288L9.74528 8.66397Z" fill="#AC47DB"/>
<path d="M9.67512 4.01123L10.6156 4.95168L7.15075 8.4165L6.2103 7.47605L9.67512 4.01123Z" fill="white"/>
<path d="M9.74512 8.66399L8.80467 7.72354L5.33984 11.1884L6.2803 12.1288L9.74512 8.66399Z" fill="white"/>
</svg>
