<svg width="16" height="16" viewBox="0 0 16 16" fill="none" xmlns="http://www.w3.org/2000/svg">
<path d="M13.1219 4.99862C12.9443 5.38941 12.3892 5.38942 12.2116 4.99862L11.8334 4.16669L11.0015 3.78854C10.6107 3.6109 10.6107 3.05581 11.0015 2.87817L11.8334 2.50002L12.2116 1.66809C12.3892 1.27729 12.9443 1.27729 13.1219 1.66809L13.5001 2.50002L14.332 2.87817C14.7228 3.05581 14.7228 3.6109 14.332 3.78854L13.5001 4.16669L13.1219 4.99862ZM13.1219 14.332C12.9443 14.7227 12.3892 14.7227 12.2116 14.332L11.8334 13.5L11.0015 13.1219C10.6107 12.9442 10.6107 12.3891 11.0015 12.2115L11.8334 11.8334L12.2116 11.0014C12.3892 10.6106 12.9443 10.6106 13.1219 11.0014L13.5001 11.8334L14.332 12.2115C14.7228 12.3891 14.7228 12.9442 14.332 13.1219L13.5001 13.5L13.1219 14.332ZM6.45527 12.332C6.27763 12.7227 5.72253 12.7227 5.5449 12.332L4.33341 9.66669L1.66815 8.4552C1.27735 8.27757 1.27735 7.72247 1.66815 7.54484L4.33341 6.33335L5.5449 3.66809C5.72253 3.27729 6.27763 3.27729 6.45526 3.66809L7.66675 6.33335L10.332 7.54484C10.7228 7.72247 10.7228 8.27757 10.332 8.4552L7.66675 9.66669L6.45527 12.332Z" fill="#2C93F2"/>
</svg>
