<svg width="14" height="14" viewBox="0 0 14 14" fill="none" xmlns="http://www.w3.org/2000/svg">
<path d="M6.96258 12.3708C7.23873 12.3708 7.46258 12.1469 7.46258 11.8708L7.46258 3.86227L10.1966 6.5963C10.3919 6.79156 10.7085 6.79156 10.9037 6.5963L11.0214 6.47858C11.2167 6.28331 11.2167 5.96673 11.0214 5.77147L7.2328 1.98283C7.03754 1.78756 6.72096 1.78756 6.5257 1.98283L2.73705 5.77147C2.54179 5.96673 2.54179 6.28331 2.73705 6.47858L2.85478 6.5963C3.05004 6.79156 3.36663 6.79156 3.56189 6.5963L6.29592 3.86227L6.29592 11.8708C6.29592 12.1469 6.51977 12.3708 6.79592 12.3708L6.96258 12.3708Z" fill="black" fill-opacity="0.6"/>
</svg>
