<svg width="20" height="20" viewBox="0 0 20 20" fill="none" xmlns="http://www.w3.org/2000/svg">
<path d="M4.16667 4.16667H7.83333C8.10948 4.16667 8.33333 3.94281 8.33333 3.66667V3C8.33333 2.72386 8.10948 2.5 7.83333 2.5H4.5C3.39543 2.5 2.5 3.39543 2.5 4.5V7.83333C2.5 8.10948 2.72386 8.33333 3 8.33333H3.66667C3.94281 8.33333 4.16667 8.10948 4.16667 7.83333V4.16667ZM8.33333 16.3333C8.33333 16.0572 8.10948 15.8333 7.83333 15.8333H4.16667V12.1667C4.16667 11.8905 3.94281 11.6667 3.66667 11.6667H3C2.72386 11.6667 2.5 11.8905 2.5 12.1667V15.5C2.5 16.6046 3.39543 17.5 4.5 17.5H7.83333C8.10948 17.5 8.33333 17.2761 8.33333 17V16.3333ZM17.5 12.1667C17.5 11.8905 17.2761 11.6667 17 11.6667H16.3333C16.0572 11.6667 15.8333 11.8905 15.8333 12.1667V15.8333H12.1667C11.8905 15.8333 11.6667 16.0572 11.6667 16.3333V17C11.6667 17.2761 11.8905 17.5 12.1667 17.5H15.5C16.6046 17.5 17.5 16.6046 17.5 15.5V12.1667ZM15.8333 7.83333C15.8333 8.10948 16.0572 8.33333 16.3333 8.33333H17C17.2761 8.33333 17.5 8.10948 17.5 7.83333V4.5C17.5 3.39543 16.6046 2.5 15.5 2.5H12.1667C11.8905 2.5 11.6667 2.72386 11.6667 3V3.66667C11.6667 3.94281 11.8905 4.16667 12.1667 4.16667H15.8333V7.83333Z" fill="black" fill-opacity="0.85"/>
</svg>
