<svg width="20" height="20" viewBox="0 0 20 20" fill="none" xmlns="http://www.w3.org/2000/svg">
<path fill-rule="evenodd" clip-rule="evenodd" d="M9.99998 11.1785L14.8905 16.069C15.0858 16.2643 15.4023 16.2643 15.5976 16.069L16.069 15.5976C16.2643 15.4024 16.2643 15.0858 16.069 14.8905L11.1785 9.99998L16.069 5.10946C16.2643 4.9142 16.2643 4.59761 16.069 4.40235L15.5976 3.93095C15.4024 3.73568 15.0858 3.73568 14.8905 3.93095L9.99998 8.82147L5.10946 3.93095C4.9142 3.73568 4.59761 3.73568 4.40235 3.93095L3.93095 4.40235C3.73568 4.59761 3.73568 4.9142 3.93095 5.10946L8.82147 9.99998L3.93095 14.8905C3.73568 15.0858 3.73568 15.4023 3.93095 15.5976L4.40235 16.069C4.59761 16.2643 4.9142 16.2643 5.10946 16.069L9.99998 11.1785Z" fill="black" fill-opacity="0.85"/>
</svg>
